<svg xmlns="http://www.w3.org/2000/svg" xmlns:xlink="http://www.w3.org/1999/xlink" width="299" zoomAndPan="magnify" viewBox="0 0 224.25 48" height="64" preserveAspectRatio="xMidYMid meet" version="1.0"><defs><g/><clipPath id="c2dc3a85b1"><path d="M 36.769531 1.324219 L 77.871094 1.324219 L 77.871094 45.722656 L 36.769531 45.722656 Z M 36.769531 1.324219 " clip-rule="nonzero"/></clipPath></defs><path fill="#ffffff" d="M 40.027344 25.148438 C 40.027344 34.675781 47.808594 42.472656 57.320312 42.472656 C 66.832031 42.472656 74.613281 34.675781 74.613281 25.148438 C 74.613281 15.617188 66.832031 7.820312 57.320312 7.820312 C 47.808594 7.820312 40.027344 15.617188 40.027344 25.148438 " fill-opacity="1" fill-rule="nonzero"/><path fill="#b0bec5" d="M 57.320312 8.902344 L 57.320312 4.574219 C 51.699219 4.574219 46.511719 6.847656 42.835938 10.636719 L 45.863281 13.667969 C 48.78125 10.746094 52.890625 8.902344 57.320312 8.902344 Z M 57.320312 8.902344 " fill-opacity="1" fill-rule="nonzero"/><path fill="#b0bec5" d="M 43.269531 25.148438 C 43.269531 25.796875 42.835938 26.230469 42.1875 26.230469 L 40.027344 26.230469 L 40.027344 24.0625 L 42.1875 24.0625 C 42.835938 24.0625 43.269531 24.496094 43.269531 25.148438 Z M 57.320312 39.226562 C 56.671875 39.226562 56.238281 39.65625 56.238281 40.308594 L 56.238281 42.472656 L 58.402344 42.472656 L 58.402344 40.308594 C 58.402344 39.65625 57.96875 39.226562 57.320312 39.226562 Z M 72.453125 24.0625 C 71.804688 24.0625 71.371094 24.496094 71.371094 25.148438 C 71.371094 25.796875 71.804688 26.230469 72.453125 26.230469 L 74.613281 26.230469 L 74.613281 24.0625 Z M 72.453125 24.0625 " fill-opacity="1" fill-rule="nonzero"/><g clip-path="url(#c2dc3a85b1)"><path fill="#0b4b9c" d="M 59.484375 4.679688 L 59.484375 1.324219 L 52.996094 6.738281 L 59.484375 12.152344 L 59.484375 9.121094 C 67.371094 10.203125 73.535156 17.027344 73.535156 25.253906 C 73.535156 34.242188 66.292969 41.5 57.320312 41.5 C 48.347656 41.5 41.105469 34.242188 41.105469 25.253906 C 41.105469 20.816406 42.945312 16.699219 45.863281 13.777344 L 42.835938 10.746094 C 39.054688 14.320312 36.785156 19.515625 36.785156 25.148438 C 36.785156 36.519531 45.972656 45.722656 57.320312 45.722656 C 68.671875 45.722656 77.859375 36.519531 77.859375 25.148438 C 77.859375 14.535156 69.75 5.761719 59.484375 4.679688 Z M 59.484375 4.679688 " fill-opacity="1" fill-rule="nonzero"/></g><path fill="#004aad" d="M 56.238281 31.644531 L 47.59375 31.644531 L 47.59375 29.695312 L 51.699219 25.363281 C 52.671875 24.171875 53.214844 23.304688 53.214844 22.65625 C 53.214844 22.113281 53.105469 21.683594 52.890625 21.355469 C 52.671875 21.03125 52.347656 20.925781 51.808594 20.925781 C 51.375 20.925781 50.945312 21.140625 50.726562 21.464844 C 50.402344 21.898438 50.296875 22.332031 50.296875 22.875 L 47.59375 22.875 C 47.59375 22.113281 47.808594 21.355469 48.132812 20.707031 C 48.566406 20.058594 49.105469 19.515625 49.753906 19.191406 C 50.402344 18.867188 50.945312 18.648438 51.808594 18.648438 C 53.214844 18.648438 54.292969 18.976562 55.050781 19.625 C 55.808594 20.273438 56.132812 21.140625 56.132812 22.332031 C 56.132812 22.875 56.023438 23.304688 55.808594 23.847656 C 55.589844 24.28125 55.375 24.824219 54.941406 25.363281 C 54.511719 25.90625 53.863281 26.554688 52.996094 27.421875 L 51.484375 29.480469 L 56.238281 29.480469 Z M 65.75 27.3125 L 67.046875 27.3125 L 67.046875 29.480469 L 65.75 29.480469 L 65.75 31.644531 L 62.726562 31.644531 L 62.726562 29.480469 L 57.753906 29.480469 L 57.535156 27.746094 L 62.726562 18.648438 L 65.75 18.648438 Z M 60.347656 27.3125 L 62.726562 27.3125 L 62.726562 22.546875 L 62.507812 22.875 Z M 60.347656 27.3125 " fill-opacity="1" fill-rule="nonzero"/><g fill="#ff6600" fill-opacity="1"><g transform="translate(77.9245, 25.070076)"><g><path d="M 0.734375 -18.8125 C 0.734375 -18.976562 0.789062 -19.117188 0.90625 -19.234375 C 1.019531 -19.347656 1.179688 -19.40625 1.390625 -19.40625 L 17.03125 -19.40625 C 17.238281 -19.40625 17.398438 -19.347656 17.515625 -19.234375 C 17.628906 -19.117188 17.6875 -18.976562 17.6875 -18.8125 L 17.6875 -15.6875 C 17.6875 -15.363281 17.492188 -15.203125 17.109375 -15.203125 L 12.46875 -15.203125 C 12.257812 -15.203125 12.15625 -15.113281 12.15625 -14.9375 L 12.15625 -0.578125 C 12.15625 -0.378906 12.113281 -0.234375 12.03125 -0.140625 C 11.945312 -0.046875 11.828125 0 11.671875 0 L 6.703125 0 C 6.378906 0 6.21875 -0.171875 6.21875 -0.515625 L 6.21875 -14.828125 C 6.21875 -15.078125 6.125 -15.203125 5.9375 -15.203125 L 1.328125 -15.203125 C 0.929688 -15.203125 0.734375 -15.363281 0.734375 -15.6875 Z M 0.734375 -18.8125 "/></g></g></g><g fill="#ff6600" fill-opacity="1"><g transform="translate(99.658184, 25.070076)"><g><path d="M 7.828125 0.265625 C 6.410156 0.265625 5.148438 -0.0351562 4.046875 -0.640625 C 2.953125 -1.253906 2.09375 -2.097656 1.46875 -3.171875 C 0.851562 -4.242188 0.546875 -5.472656 0.546875 -6.859375 C 0.546875 -8.285156 0.863281 -9.546875 1.5 -10.640625 C 2.132812 -11.742188 3.003906 -12.597656 4.109375 -13.203125 C 5.222656 -13.816406 6.46875 -14.125 7.84375 -14.125 C 9.269531 -14.125 10.535156 -13.8125 11.640625 -13.1875 C 12.753906 -12.570312 13.613281 -11.710938 14.21875 -10.609375 C 14.832031 -9.503906 15.140625 -8.253906 15.140625 -6.859375 C 15.140625 -5.492188 14.828125 -4.269531 14.203125 -3.1875 C 13.585938 -2.101562 12.722656 -1.253906 11.609375 -0.640625 C 10.492188 -0.0351562 9.234375 0.265625 7.828125 0.265625 Z M 7.84375 -3.09375 C 8.539062 -3.09375 9.050781 -3.398438 9.375 -4.015625 C 9.695312 -4.628906 9.859375 -5.609375 9.859375 -6.953125 C 9.859375 -8.335938 9.695312 -9.335938 9.375 -9.953125 C 9.050781 -10.566406 8.539062 -10.875 7.84375 -10.875 C 7.144531 -10.875 6.632812 -10.5625 6.3125 -9.9375 C 5.988281 -9.3125 5.828125 -8.316406 5.828125 -6.953125 C 5.828125 -5.597656 5.988281 -4.613281 6.3125 -4 C 6.632812 -3.394531 7.144531 -3.09375 7.84375 -3.09375 Z M 8.25 -17.234375 C 8.050781 -17.484375 7.898438 -17.609375 7.796875 -17.609375 C 7.691406 -17.609375 7.546875 -17.484375 7.359375 -17.234375 L 6.15625 -15.796875 C 6.0625 -15.671875 5.972656 -15.597656 5.890625 -15.578125 C 5.816406 -15.566406 5.675781 -15.5625 5.46875 -15.5625 L 2.875 -15.5625 C 2.71875 -15.5625 2.640625 -15.613281 2.640625 -15.71875 C 2.640625 -15.800781 2.691406 -15.90625 2.796875 -16.03125 L 5.734375 -19.296875 C 5.859375 -19.441406 5.988281 -19.546875 6.125 -19.609375 C 6.257812 -19.671875 6.453125 -19.703125 6.703125 -19.703125 L 9.1875 -19.703125 C 9.34375 -19.703125 9.476562 -19.671875 9.59375 -19.609375 C 9.707031 -19.546875 9.816406 -19.460938 9.921875 -19.359375 L 12.828125 -16.03125 C 12.960938 -15.851562 13.03125 -15.738281 13.03125 -15.6875 C 13.03125 -15.601562 12.941406 -15.5625 12.765625 -15.5625 L 10.015625 -15.5625 C 9.828125 -15.5625 9.6875 -15.570312 9.59375 -15.59375 C 9.5 -15.625 9.40625 -15.691406 9.3125 -15.796875 Z M 8.25 -17.234375 "/></g></g></g><g fill="#ff6600" fill-opacity="1"><g transform="translate(118.671891, 25.070076)"><g><path d="M 1.75 0 C 1.507812 0 1.335938 -0.046875 1.234375 -0.140625 C 1.128906 -0.234375 1.078125 -0.40625 1.078125 -0.65625 L 1.078125 -13.265625 C 1.078125 -13.453125 1.117188 -13.597656 1.203125 -13.703125 C 1.285156 -13.804688 1.40625 -13.859375 1.5625 -13.859375 L 5.78125 -13.859375 C 6.09375 -13.859375 6.25 -13.6875 6.25 -13.34375 L 6.25 -12.15625 C 6.25 -12.019531 6.289062 -11.953125 6.375 -11.953125 C 6.445312 -11.953125 6.519531 -11.988281 6.59375 -12.0625 C 7.164062 -12.707031 7.804688 -13.210938 8.515625 -13.578125 C 9.234375 -13.941406 9.976562 -14.125 10.75 -14.125 C 11.96875 -14.125 12.957031 -13.738281 13.71875 -12.96875 C 14.476562 -12.207031 14.859375 -11.179688 14.859375 -9.890625 L 14.859375 -0.78125 C 14.859375 -0.257812 14.597656 0 14.078125 0 L 10.234375 0 C 10.003906 0 9.84375 -0.046875 9.75 -0.140625 C 9.664062 -0.234375 9.625 -0.40625 9.625 -0.65625 L 9.625 -9.1875 C 9.625 -9.5625 9.492188 -9.863281 9.234375 -10.09375 C 8.984375 -10.320312 8.648438 -10.4375 8.234375 -10.4375 C 7.429688 -10.4375 6.785156 -10 6.296875 -9.125 L 6.296875 -0.765625 C 6.296875 -0.484375 6.226562 -0.285156 6.09375 -0.171875 C 5.96875 -0.0546875 5.75 0 5.4375 0 Z M 1.75 0 "/></g></g></g><g fill="#ff6600" fill-opacity="1"><g transform="translate(137.79021, 25.070076)"><g><path d="M 6.296875 -15.765625 C 6.296875 -15.503906 6.226562 -15.3125 6.09375 -15.1875 C 5.957031 -15.070312 5.738281 -15.015625 5.4375 -15.015625 L 1.75 -15.015625 C 1.507812 -15.015625 1.335938 -15.070312 1.234375 -15.1875 C 1.128906 -15.300781 1.078125 -15.46875 1.078125 -15.6875 L 1.078125 -18.8125 C 1.078125 -19.207031 1.238281 -19.40625 1.5625 -19.40625 L 5.828125 -19.40625 C 5.972656 -19.40625 6.085938 -19.359375 6.171875 -19.265625 C 6.253906 -19.171875 6.296875 -19.035156 6.296875 -18.859375 Z M 6.296875 -0.765625 C 6.296875 -0.484375 6.226562 -0.285156 6.09375 -0.171875 C 5.957031 -0.0546875 5.738281 0 5.4375 0 L 1.75 0 C 1.488281 0 1.3125 -0.0507812 1.21875 -0.15625 C 1.125 -0.257812 1.078125 -0.425781 1.078125 -0.65625 L 1.078125 -13.265625 C 1.078125 -13.660156 1.238281 -13.859375 1.5625 -13.859375 L 5.828125 -13.859375 C 5.972656 -13.859375 6.085938 -13.8125 6.171875 -13.71875 C 6.253906 -13.625 6.296875 -13.5 6.296875 -13.34375 Z M 6.296875 -0.765625 "/></g></g></g><g fill="#ff6600" fill-opacity="1"><g transform="translate(148.487062, 25.070076)"><g><path d="M 7.796875 -14.125 C 8.960938 -14.125 9.988281 -13.898438 10.875 -13.453125 C 11.769531 -13.015625 12.476562 -12.453125 13 -11.765625 C 13.519531 -11.085938 13.859375 -10.390625 14.015625 -9.671875 C 14.054688 -9.535156 14.078125 -9.453125 14.078125 -9.421875 C 14.078125 -9.171875 13.898438 -9.03125 13.546875 -9 L 9.96875 -8.8125 L 9.890625 -8.8125 C 9.765625 -8.8125 9.679688 -8.835938 9.640625 -8.890625 C 9.597656 -8.941406 9.554688 -9.039062 9.515625 -9.1875 C 9.453125 -9.65625 9.3125 -10.046875 9.09375 -10.359375 C 8.875 -10.671875 8.484375 -10.828125 7.921875 -10.828125 C 6.523438 -10.828125 5.828125 -9.53125 5.828125 -6.9375 C 5.828125 -5.539062 6.023438 -4.53125 6.421875 -3.90625 C 6.828125 -3.289062 7.425781 -2.984375 8.21875 -2.984375 C 8.664062 -2.984375 9.039062 -3.066406 9.34375 -3.234375 C 9.65625 -3.398438 9.90625 -3.617188 10.09375 -3.890625 C 10.289062 -4.160156 10.523438 -4.546875 10.796875 -5.046875 C 10.847656 -5.148438 10.953125 -5.203125 11.109375 -5.203125 C 11.203125 -5.203125 11.273438 -5.191406 11.328125 -5.171875 L 13.78125 -4.703125 C 13.976562 -4.691406 14.078125 -4.585938 14.078125 -4.390625 C 14.078125 -4.378906 14.054688 -4.285156 14.015625 -4.109375 C 13.910156 -3.546875 13.625 -2.925781 13.15625 -2.25 C 12.6875 -1.570312 12 -0.984375 11.09375 -0.484375 C 10.1875 0.015625 9.085938 0.265625 7.796875 0.265625 C 6.421875 0.265625 5.175781 -0.0351562 4.0625 -0.640625 C 2.957031 -1.242188 2.09375 -2.082031 1.46875 -3.15625 C 0.851562 -4.238281 0.546875 -5.476562 0.546875 -6.875 C 0.546875 -8.289062 0.859375 -9.546875 1.484375 -10.640625 C 2.117188 -11.742188 2.984375 -12.597656 4.078125 -13.203125 C 5.179688 -13.816406 6.421875 -14.125 7.796875 -14.125 Z M 7.796875 -14.125 "/></g></g></g><g fill="#ff6600" fill-opacity="1"><g transform="translate(166.350005, 25.070076)"><g><path d="M 7.828125 0.265625 C 6.410156 0.265625 5.148438 -0.0351562 4.046875 -0.640625 C 2.953125 -1.253906 2.09375 -2.097656 1.46875 -3.171875 C 0.851562 -4.242188 0.546875 -5.472656 0.546875 -6.859375 C 0.546875 -8.285156 0.863281 -9.546875 1.5 -10.640625 C 2.132812 -11.742188 3.003906 -12.597656 4.109375 -13.203125 C 5.222656 -13.816406 6.46875 -14.125 7.84375 -14.125 C 9.269531 -14.125 10.535156 -13.8125 11.640625 -13.1875 C 12.753906 -12.570312 13.613281 -11.710938 14.21875 -10.609375 C 14.832031 -9.503906 15.140625 -8.253906 15.140625 -6.859375 C 15.140625 -5.492188 14.828125 -4.269531 14.203125 -3.1875 C 13.585938 -2.101562 12.722656 -1.253906 11.609375 -0.640625 C 10.492188 -0.0351562 9.234375 0.265625 7.828125 0.265625 Z M 7.84375 -3.09375 C 8.539062 -3.09375 9.050781 -3.398438 9.375 -4.015625 C 9.695312 -4.628906 9.859375 -5.609375 9.859375 -6.953125 C 9.859375 -8.335938 9.695312 -9.335938 9.375 -9.953125 C 9.050781 -10.566406 8.539062 -10.875 7.84375 -10.875 C 7.144531 -10.875 6.632812 -10.5625 6.3125 -9.9375 C 5.988281 -9.3125 5.828125 -8.316406 5.828125 -6.953125 C 5.828125 -5.597656 5.988281 -4.613281 6.3125 -4 C 6.632812 -3.394531 7.144531 -3.09375 7.84375 -3.09375 Z M 7.84375 -3.09375 "/></g></g></g><g fill="#ff6600" fill-opacity="1"><g transform="translate(77.9245, 42.256693)"><g/></g></g><g fill="#0b4b9c" fill-opacity="1"><g transform="translate(81.254407, 42.256693)"><g><path d="M 1.46875 0 C 1.34375 0 1.234375 -0.0390625 1.140625 -0.125 C 1.054688 -0.207031 1.015625 -0.3125 1.015625 -0.4375 L 1.015625 -14.03125 C 1.015625 -14.175781 1.0625 -14.296875 1.15625 -14.390625 C 1.25 -14.484375 1.367188 -14.53125 1.515625 -14.53125 L 7.34375 -14.53125 C 9.382812 -14.53125 10.929688 -14.207031 11.984375 -13.5625 C 13.035156 -12.914062 13.5625 -11.960938 13.5625 -10.703125 C 13.5625 -10.003906 13.367188 -9.414062 12.984375 -8.9375 C 12.609375 -8.46875 11.941406 -8.007812 10.984375 -7.5625 C 10.960938 -7.550781 10.953125 -7.53125 10.953125 -7.5 C 10.953125 -7.46875 10.960938 -7.441406 10.984375 -7.421875 C 12.046875 -7.035156 12.796875 -6.570312 13.234375 -6.03125 C 13.679688 -5.5 13.90625 -4.804688 13.90625 -3.953125 C 13.90625 -2.609375 13.390625 -1.613281 12.359375 -0.96875 C 11.335938 -0.320312 9.769531 0 7.65625 0 Z M 7.65625 -8.859375 C 8.113281 -8.859375 8.476562 -8.976562 8.75 -9.21875 C 9.03125 -9.46875 9.171875 -9.789062 9.171875 -10.1875 C 9.171875 -10.601562 9.015625 -10.941406 8.703125 -11.203125 C 8.390625 -11.460938 8 -11.59375 7.53125 -11.59375 L 5.921875 -11.59375 C 5.742188 -11.59375 5.625 -11.5625 5.5625 -11.5 C 5.5 -11.445312 5.46875 -11.347656 5.46875 -11.203125 L 5.46875 -9.28125 C 5.46875 -9.125 5.492188 -9.015625 5.546875 -8.953125 C 5.597656 -8.890625 5.679688 -8.859375 5.796875 -8.859375 Z M 7.5625 -2.9375 C 8.09375 -2.9375 8.507812 -3.085938 8.8125 -3.390625 C 9.125 -3.691406 9.28125 -4.046875 9.28125 -4.453125 C 9.28125 -4.859375 9.128906 -5.191406 8.828125 -5.453125 C 8.535156 -5.710938 8.144531 -5.84375 7.65625 -5.84375 L 5.921875 -5.84375 C 5.742188 -5.84375 5.625 -5.804688 5.5625 -5.734375 C 5.5 -5.671875 5.46875 -5.566406 5.46875 -5.421875 L 5.46875 -3.375 C 5.46875 -3.21875 5.492188 -3.101562 5.546875 -3.03125 C 5.597656 -2.96875 5.679688 -2.9375 5.796875 -2.9375 Z M 7.5625 -2.9375 "/></g></g></g><g fill="#0b4b9c" fill-opacity="1"><g transform="translate(95.148517, 42.256693)"><g><path d="M 4.734375 -0.5625 C 4.734375 -0.351562 4.679688 -0.207031 4.578125 -0.125 C 4.472656 -0.0390625 4.3125 0 4.09375 0 L 1.3125 0 C 1.113281 0 0.972656 -0.0351562 0.890625 -0.109375 C 0.816406 -0.191406 0.78125 -0.316406 0.78125 -0.484375 L 0.875 -14.09375 C 0.875 -14.382812 1 -14.53125 1.25 -14.53125 L 4.390625 -14.53125 C 4.492188 -14.53125 4.578125 -14.492188 4.640625 -14.421875 C 4.703125 -14.359375 4.734375 -14.257812 4.734375 -14.125 Z M 4.734375 -0.5625 "/></g></g></g><g fill="#0b4b9c" fill-opacity="1"><g transform="translate(100.126092, 42.256693)"><g><path d="M 5.859375 0.203125 C 4.796875 0.203125 3.851562 -0.0234375 3.03125 -0.484375 C 2.207031 -0.941406 1.5625 -1.570312 1.09375 -2.375 C 0.632812 -3.175781 0.40625 -4.097656 0.40625 -5.140625 C 0.40625 -6.203125 0.644531 -7.144531 1.125 -7.96875 C 1.601562 -8.789062 2.253906 -9.429688 3.078125 -9.890625 C 3.910156 -10.347656 4.84375 -10.578125 5.875 -10.578125 C 6.945312 -10.578125 7.894531 -10.34375 8.71875 -9.875 C 9.550781 -9.414062 10.195312 -8.769531 10.65625 -7.9375 C 11.113281 -7.113281 11.34375 -6.179688 11.34375 -5.140625 C 11.34375 -4.117188 11.109375 -3.203125 10.640625 -2.390625 C 10.179688 -1.578125 9.535156 -0.941406 8.703125 -0.484375 C 7.867188 -0.0234375 6.921875 0.203125 5.859375 0.203125 Z M 5.875 -2.3125 C 6.394531 -2.3125 6.773438 -2.539062 7.015625 -3 C 7.265625 -3.46875 7.390625 -4.207031 7.390625 -5.21875 C 7.390625 -6.25 7.265625 -6.992188 7.015625 -7.453125 C 6.773438 -7.921875 6.394531 -8.15625 5.875 -8.15625 C 5.351562 -8.15625 4.972656 -7.914062 4.734375 -7.4375 C 4.492188 -6.96875 4.375 -6.226562 4.375 -5.21875 C 4.375 -4.195312 4.492188 -3.457031 4.734375 -3 C 4.972656 -2.539062 5.351562 -2.3125 5.875 -2.3125 Z M 5.875 -2.3125 "/></g></g></g><g fill="#0b4b9c" fill-opacity="1"><g transform="translate(111.296248, 42.256693)"><g><path d="M 10.734375 -10.390625 C 10.929688 -10.390625 11.066406 -10.34375 11.140625 -10.25 C 11.222656 -10.164062 11.265625 -10.039062 11.265625 -9.875 L 11.265625 2.796875 C 11.265625 2.941406 11.234375 3.050781 11.171875 3.125 C 11.109375 3.195312 11.015625 3.234375 10.890625 3.234375 L 7.703125 3.234375 C 7.460938 3.234375 7.34375 3.101562 7.34375 2.84375 L 7.34375 -0.546875 C 7.34375 -0.753906 7.296875 -0.859375 7.203125 -0.859375 C 7.128906 -0.859375 7.0625 -0.828125 7 -0.765625 C 6.175781 -0.117188 5.363281 0.203125 4.5625 0.203125 C 3.28125 0.203125 2.273438 -0.257812 1.546875 -1.1875 C 0.816406 -2.125 0.453125 -3.453125 0.453125 -5.171875 C 0.453125 -6.253906 0.628906 -7.203125 0.984375 -8.015625 C 1.335938 -8.835938 1.835938 -9.472656 2.484375 -9.921875 C 3.140625 -10.367188 3.910156 -10.59375 4.796875 -10.59375 C 6.109375 -10.59375 7.191406 -10.046875 8.046875 -8.953125 C 8.117188 -8.890625 8.164062 -8.859375 8.1875 -8.859375 C 8.226562 -8.859375 8.269531 -8.910156 8.3125 -9.015625 L 8.625 -9.921875 C 8.726562 -10.234375 8.890625 -10.390625 9.109375 -10.390625 Z M 7.34375 -6.734375 C 7.34375 -7.222656 7.21875 -7.613281 6.96875 -7.90625 C 6.726562 -8.195312 6.40625 -8.34375 6 -8.34375 C 4.9375 -8.34375 4.40625 -7.289062 4.40625 -5.1875 C 4.40625 -4.09375 4.53125 -3.3125 4.78125 -2.84375 C 5.039062 -2.382812 5.421875 -2.15625 5.921875 -2.15625 C 6.460938 -2.15625 6.9375 -2.367188 7.34375 -2.796875 Z M 7.34375 -6.734375 "/></g></g></g><g fill="#0b4b9c" fill-opacity="1"><g transform="translate(122.779954, 42.256693)"><g><path d="M 5.578125 -2.546875 C 5.859375 -2.546875 6.128906 -2.617188 6.390625 -2.765625 C 6.648438 -2.921875 6.867188 -3.113281 7.046875 -3.34375 L 7.046875 -9.8125 C 7.046875 -10.007812 7.097656 -10.15625 7.203125 -10.25 C 7.316406 -10.34375 7.484375 -10.390625 7.703125 -10.390625 L 10.5 -10.390625 C 10.6875 -10.390625 10.816406 -10.347656 10.890625 -10.265625 C 10.972656 -10.191406 11.015625 -10.0625 11.015625 -9.875 L 10.9375 -0.4375 C 10.9375 -0.144531 10.8125 0 10.5625 0 L 7.46875 0 C 7.226562 0 7.109375 -0.128906 7.109375 -0.390625 L 7.109375 -1.25 C 7.109375 -1.351562 7.078125 -1.40625 7.015625 -1.40625 C 6.972656 -1.40625 6.925781 -1.378906 6.875 -1.328125 C 6.4375 -0.804688 5.953125 -0.421875 5.421875 -0.171875 C 4.890625 0.078125 4.289062 0.203125 3.625 0.203125 C 2.757812 0.203125 2.054688 -0.0859375 1.515625 -0.671875 C 0.972656 -1.253906 0.703125 -2.054688 0.703125 -3.078125 L 0.703125 -9.796875 C 0.703125 -10.191406 0.90625 -10.390625 1.3125 -10.390625 L 4.171875 -10.390625 C 4.335938 -10.390625 4.453125 -10.347656 4.515625 -10.265625 C 4.585938 -10.191406 4.625 -10.0625 4.625 -9.875 L 4.625 -3.5 C 4.625 -3.207031 4.710938 -2.972656 4.890625 -2.796875 C 5.066406 -2.628906 5.296875 -2.546875 5.578125 -2.546875 Z M 5.578125 -2.546875 "/></g></g></g><g fill="#0b4b9c" fill-opacity="1"><g transform="translate(133.969709, 42.256693)"><g><path d="M 4.453125 -4.15625 C 4.453125 -3.582031 4.632812 -3.144531 5 -2.84375 C 5.375 -2.539062 5.863281 -2.390625 6.46875 -2.390625 C 6.820312 -2.390625 7.160156 -2.46875 7.484375 -2.625 C 7.804688 -2.789062 8.179688 -3.078125 8.609375 -3.484375 C 8.660156 -3.535156 8.710938 -3.5625 8.765625 -3.5625 C 8.816406 -3.5625 8.898438 -3.539062 9.015625 -3.5 L 10.796875 -2.78125 C 10.910156 -2.738281 10.96875 -2.660156 10.96875 -2.546875 C 10.96875 -2.460938 10.9375 -2.382812 10.875 -2.3125 C 10.195312 -1.351562 9.488281 -0.691406 8.75 -0.328125 C 8.007812 0.0234375 7.070312 0.203125 5.9375 0.203125 C 4.90625 0.203125 3.96875 -0.0195312 3.125 -0.46875 C 2.28125 -0.914062 1.613281 -1.53125 1.125 -2.3125 C 0.644531 -3.101562 0.40625 -4.003906 0.40625 -5.015625 C 0.40625 -6.097656 0.65625 -7.0625 1.15625 -7.90625 C 1.65625 -8.75 2.320312 -9.40625 3.15625 -9.875 C 3.988281 -10.34375 4.890625 -10.578125 5.859375 -10.578125 C 6.890625 -10.578125 7.804688 -10.351562 8.609375 -9.90625 C 9.410156 -9.46875 10.039062 -8.828125 10.5 -7.984375 C 10.957031 -7.140625 11.1875 -6.140625 11.1875 -4.984375 C 11.1875 -4.796875 11.164062 -4.664062 11.125 -4.59375 C 11.09375 -4.53125 10.992188 -4.492188 10.828125 -4.484375 L 4.734375 -4.484375 C 4.546875 -4.484375 4.453125 -4.375 4.453125 -4.15625 Z M 7.046875 -6.5 C 7.179688 -6.5 7.269531 -6.515625 7.3125 -6.546875 C 7.363281 -6.585938 7.390625 -6.664062 7.390625 -6.78125 C 7.390625 -7.101562 7.269531 -7.429688 7.03125 -7.765625 C 6.800781 -8.109375 6.46875 -8.28125 6.03125 -8.28125 C 5.601562 -8.28125 5.238281 -8.128906 4.9375 -7.828125 C 4.632812 -7.535156 4.488281 -7.101562 4.5 -6.53125 Z M 7.046875 -6.5 "/></g></g></g><g fill="#0b4b9c" fill-opacity="1"><g transform="translate(144.943896, 42.256693)"><g><path d="M 6.328125 -0.828125 C 5.515625 -0.140625 4.566406 0.203125 3.484375 0.203125 C 2.535156 0.203125 1.773438 -0.0625 1.203125 -0.59375 C 0.640625 -1.132812 0.359375 -1.828125 0.359375 -2.671875 C 0.359375 -3.421875 0.601562 -4.085938 1.09375 -4.671875 C 1.582031 -5.253906 2.28125 -5.703125 3.1875 -6.015625 C 4.09375 -6.335938 5.15625 -6.5 6.375 -6.5 L 6.5 -6.5 C 6.695312 -6.5 6.796875 -6.59375 6.796875 -6.78125 L 6.796875 -7.109375 C 6.796875 -7.867188 6.410156 -8.25 5.640625 -8.25 C 5.328125 -8.25 5.03125 -8.175781 4.75 -8.03125 C 4.476562 -7.882812 4.265625 -7.648438 4.109375 -7.328125 C 4.078125 -7.234375 4.035156 -7.171875 3.984375 -7.140625 C 3.941406 -7.109375 3.878906 -7.09375 3.796875 -7.09375 C 3.703125 -7.09375 3.628906 -7.097656 3.578125 -7.109375 L 1.015625 -7.625 C 0.867188 -7.644531 0.796875 -7.726562 0.796875 -7.875 C 0.796875 -7.96875 0.820312 -8.09375 0.875 -8.25 C 1.425781 -9.800781 3.070312 -10.578125 5.8125 -10.578125 C 7.53125 -10.578125 8.742188 -10.296875 9.453125 -9.734375 C 10.160156 -9.171875 10.515625 -8.375 10.515625 -7.34375 L 10.515625 -0.53125 C 10.515625 -0.332031 10.484375 -0.191406 10.421875 -0.109375 C 10.367188 -0.0351562 10.253906 0 10.078125 0 L 7.390625 0 C 7.234375 0 7.117188 -0.0546875 7.046875 -0.171875 C 6.972656 -0.296875 6.914062 -0.46875 6.875 -0.6875 L 6.859375 -0.828125 C 6.847656 -0.953125 6.796875 -1.015625 6.703125 -1.015625 C 6.597656 -1.015625 6.472656 -0.953125 6.328125 -0.828125 Z M 6.796875 -4.390625 C 6.796875 -4.515625 6.773438 -4.601562 6.734375 -4.65625 C 6.703125 -4.707031 6.625 -4.734375 6.5 -4.734375 L 6.421875 -4.734375 C 6.171875 -4.734375 5.867188 -4.675781 5.515625 -4.5625 C 5.160156 -4.445312 4.84375 -4.273438 4.5625 -4.046875 C 4.289062 -3.816406 4.15625 -3.53125 4.15625 -3.1875 C 4.15625 -2.914062 4.25 -2.691406 4.4375 -2.515625 C 4.632812 -2.347656 4.910156 -2.265625 5.265625 -2.265625 C 5.679688 -2.265625 6.039062 -2.390625 6.34375 -2.640625 C 6.644531 -2.890625 6.796875 -3.125 6.796875 -3.34375 Z M 6.796875 -4.390625 "/></g></g></g><g fill="#0b4b9c" fill-opacity="1"><g transform="translate(155.584942, 42.256693)"><g><path d="M 7.890625 0 C 7.753906 0 7.640625 -0.0351562 7.546875 -0.109375 C 7.453125 -0.179688 7.40625 -0.296875 7.40625 -0.453125 L 7.40625 -0.828125 C 7.40625 -0.878906 7.390625 -0.914062 7.359375 -0.9375 C 7.335938 -0.96875 7.3125 -0.984375 7.28125 -0.984375 C 7.25 -0.984375 7.191406 -0.957031 7.109375 -0.90625 C 6.703125 -0.519531 6.285156 -0.238281 5.859375 -0.0625 C 5.441406 0.113281 4.945312 0.203125 4.375 0.203125 C 3.1875 0.203125 2.234375 -0.253906 1.515625 -1.171875 C 0.804688 -2.097656 0.453125 -3.425781 0.453125 -5.15625 C 0.453125 -6.207031 0.640625 -7.148438 1.015625 -7.984375 C 1.398438 -8.816406 1.90625 -9.457031 2.53125 -9.90625 C 3.164062 -10.351562 3.84375 -10.578125 4.5625 -10.578125 C 5.03125 -10.578125 5.457031 -10.5 5.84375 -10.34375 C 6.226562 -10.195312 6.613281 -9.9375 7 -9.5625 C 7.082031 -9.5 7.148438 -9.46875 7.203125 -9.46875 C 7.316406 -9.46875 7.375 -9.550781 7.375 -9.71875 L 7.375 -14.125 C 7.375 -14.394531 7.488281 -14.53125 7.71875 -14.53125 L 10.890625 -14.53125 C 11.015625 -14.53125 11.109375 -14.488281 11.171875 -14.40625 C 11.234375 -14.332031 11.265625 -14.226562 11.265625 -14.09375 L 11.265625 -0.484375 C 11.265625 -0.316406 11.222656 -0.191406 11.140625 -0.109375 C 11.066406 -0.0351562 10.929688 0 10.734375 0 Z M 7.34375 -7.40625 C 7.125 -7.664062 6.910156 -7.851562 6.703125 -7.96875 C 6.503906 -8.09375 6.257812 -8.15625 5.96875 -8.15625 C 5.476562 -8.15625 5.09375 -7.925781 4.8125 -7.46875 C 4.539062 -7.007812 4.40625 -6.242188 4.40625 -5.171875 C 4.40625 -4.085938 4.535156 -3.3125 4.796875 -2.84375 C 5.054688 -2.382812 5.445312 -2.15625 5.96875 -2.15625 C 6.363281 -2.15625 6.691406 -2.273438 6.953125 -2.515625 C 7.210938 -2.753906 7.34375 -3.066406 7.34375 -3.453125 Z M 7.34375 -7.40625 "/></g></g></g><g fill="#0b4b9c" fill-opacity="1"><g transform="translate(167.068649, 42.256693)"><g><path d="M 5.859375 0.203125 C 4.796875 0.203125 3.851562 -0.0234375 3.03125 -0.484375 C 2.207031 -0.941406 1.5625 -1.570312 1.09375 -2.375 C 0.632812 -3.175781 0.40625 -4.097656 0.40625 -5.140625 C 0.40625 -6.203125 0.644531 -7.144531 1.125 -7.96875 C 1.601562 -8.789062 2.253906 -9.429688 3.078125 -9.890625 C 3.910156 -10.347656 4.84375 -10.578125 5.875 -10.578125 C 6.945312 -10.578125 7.894531 -10.34375 8.71875 -9.875 C 9.550781 -9.414062 10.195312 -8.769531 10.65625 -7.9375 C 11.113281 -7.113281 11.34375 -6.179688 11.34375 -5.140625 C 11.34375 -4.117188 11.109375 -3.203125 10.640625 -2.390625 C 10.179688 -1.578125 9.535156 -0.941406 8.703125 -0.484375 C 7.867188 -0.0234375 6.921875 0.203125 5.859375 0.203125 Z M 5.875 -2.3125 C 6.394531 -2.3125 6.773438 -2.539062 7.015625 -3 C 7.265625 -3.46875 7.390625 -4.207031 7.390625 -5.21875 C 7.390625 -6.25 7.265625 -6.992188 7.015625 -7.453125 C 6.773438 -7.921875 6.394531 -8.15625 5.875 -8.15625 C 5.351562 -8.15625 4.972656 -7.914062 4.734375 -7.4375 C 4.492188 -6.96875 4.375 -6.226562 4.375 -5.21875 C 4.375 -4.195312 4.492188 -3.457031 4.734375 -3 C 4.972656 -2.539062 5.351562 -2.3125 5.875 -2.3125 Z M 5.875 -2.3125 "/></g></g></g><g fill="#0b4b9c" fill-opacity="1"><g transform="translate(178.238804, 42.256693)"><g><path d="M 1.3125 0 C 1.113281 0 0.976562 -0.0351562 0.90625 -0.109375 C 0.832031 -0.191406 0.796875 -0.316406 0.796875 -0.484375 L 0.796875 -9.9375 C 0.796875 -10.238281 0.921875 -10.390625 1.171875 -10.390625 L 4.234375 -10.390625 C 4.335938 -10.390625 4.421875 -10.351562 4.484375 -10.28125 C 4.546875 -10.207031 4.578125 -10.113281 4.578125 -10 L 4.578125 -8.890625 C 4.578125 -8.773438 4.625 -8.71875 4.71875 -8.71875 C 4.78125 -8.71875 4.847656 -8.757812 4.921875 -8.84375 C 5.234375 -9.320312 5.671875 -9.726562 6.234375 -10.0625 C 6.796875 -10.40625 7.304688 -10.578125 7.765625 -10.578125 C 8.242188 -10.578125 8.484375 -10.445312 8.484375 -10.1875 L 8.484375 -7.203125 C 8.484375 -7.078125 8.445312 -6.988281 8.375 -6.9375 C 8.300781 -6.882812 8.207031 -6.867188 8.09375 -6.890625 C 7.53125 -7.035156 6.96875 -7.109375 6.40625 -7.109375 C 5.976562 -7.109375 5.585938 -6.972656 5.234375 -6.703125 C 4.890625 -6.429688 4.71875 -6.125 4.71875 -5.78125 L 4.71875 -0.5625 C 4.71875 -0.351562 4.664062 -0.207031 4.5625 -0.125 C 4.457031 -0.0390625 4.296875 0 4.078125 0 Z M 1.3125 0 "/></g></g></g></svg>