<?xml version="1.0" encoding="UTF-8"?>
<svg id="Camada_1" data-name="Camada 1" xmlns="http://www.w3.org/2000/svg" viewBox="0 0 500 188">
  <defs>
    <style>
      .cls-1 {
        fill: #fff;
        stroke-width: 0px;
      }
    </style>
  </defs>
  <path class="cls-1" d="M305.61,114.4c-2.48-.02-4.96-.01-7.44,0-1.49,0-1.91.42-1.91,1.9,0,19.51,0,39.03.01,58.54,0,1.68-.23,1.91-1.91,1.91-5.1,0-10.19-.02-15.29,0-1.39,0-2.71-.22-4.06-.59-2.77-.75-5.69-4.3-5.66-7.5.05-5.06.02-10.12.02-15.18,0-1.11.22-2.12.72-3.16,1.66-3.46,4.46-5.04,8.15-5.14,3.44-.1,6.89-.02,10.33-.02.44,0,.9.08,1.29-.22.31-.29.31-.67.31-1.05,0-2.68,0-5.37,0-8.05,0-1.24-.28-1.49-1.54-1.49-3.72,0-7.44.06-11.16,0-3.1-.06-5.96.64-8.7,2.1-3.34,1.79-5.94,4.36-7.88,7.54-1.69,2.78-2.4,5.89-2.38,9.16.04,5.2,0,10.39.02,15.59,0,1.34-.05,2.73.28,4,1.12,4.34,3.37,8.01,6.95,10.79,3.47,2.69,7.34,4.18,11.81,4.12,6.2-.08,12.4-.07,18.6,0,2.53.03,4.77-.64,6.68-2.25,2.61-2.21,4.42-4.9,4.43-8.47.01-20.27.01-40.54.01-60.81,0-1.38-.31-1.71-1.7-1.72ZM490.25,19.44c6.03-.02,9.7-5.02,9.75-9.57.05-4.3-3.69-9.75-9.84-9.54-5.22-.27-10.02,4.48-9.65,10.14.3,4.66,4.33,8.99,9.74,8.97ZM309.28,21.37c-.57-2.44-1.29-4.76-2.61-6.88-1.48-2.38-3.39-4.38-5.45-6.29-2.59-2.4-5.69-3.82-8.88-5.09-2.44-.98-5.07-1.16-7.68-1.3-5.92-.31-11.84-.14-17.76-.15-1.17,0-2.34.12-3.5.23-2.66.26-5.23.77-7.75,1.82-2.05.85-4.08,1.74-5.8,3.08-3.19,2.47-6.08,5.27-7.87,8.99-1.47,3.06-2.64,6.18-2.62,9.65.03,6.02,0,12.04,0,18.07,0,6.19.02,12.39-.01,18.58-.01,1.89.41,3.74.97,5.46.92,2.82,2.21,5.51,4.15,7.87,2.49,3.03,5.42,5.45,8.87,7.26,1.24.65,2.58,1.07,3.91,1.53,2.39.82,4.79,1.38,7.32,1.38,6.65,0,13.29-.02,19.94,0,4.08.02,7.85-1.19,11.46-2.91,3.4-1.61,6.2-4,8.6-6.91,3.32-4.05,5.23-8.66,5.29-13.87.12-9.67.08-19.34.03-29.01-.02-3.84.29-7.68-.61-11.51ZM293.32,60.67c-.02,2.83-1.25,5.22-3.91,6.71-1.96,1.1-3.94,1.76-6.22,1.73-5.92-.07-11.85.04-17.77-.05-3.77-.05-6.72-1.78-8.66-5.01-.65-1.08-.92-2.35-.91-3.66.03-5.61.01-11.22.01-16.83,0-5.51.01-11.01,0-16.52,0-2.17.78-3.97,2.21-5.59,2.14-2.41,4.91-3.12,7.96-3.13,5.96-.02,11.92,0,17.87,0,3.41,0,6.14,1.35,8.09,4.13.9,1.28,1.36,2.77,1.37,4.36.01,11.29.07,22.58-.03,33.86ZM154.03,13.23c0-3.34,0-6.68.01-10.02,0-.89-.25-1.43-1.29-1.43-4.2-.02-8.4-.1-12.6-.14-2.63-.02-2.65.02-2.65,2.71,0,18.69,0,37.38,0,56.07,0,5.06-3.97,8.55-8.67,8.63-6.16.11-12.33.04-18.49.02-1.77,0-3.42-.45-4.96-1.43-2.58-1.66-3.92-3.9-3.92-7.01.03-18.93.01-37.86.02-56.79,0-2.04-.16-2.21-2.24-2.21-4.2,0-8.4,0-12.61,0-1.3,0-1.75.35-1.84,1.66-.06.92.07,1.85.07,2.78,0,16.8-.02,33.59.02,50.39.01,3.72-.3,7.47.89,11.13.48,1.47.89,2.94,1.53,4.36.72,1.6,1.99,2.79,2.98,4.2,1.86,2.65,4.42,4.51,7.14,6.14,1.41.85,2.98,1.39,4.53,1.95,1.98.71,3.98,1.3,6.08,1.32,6.3.04,12.61-.01,18.91.03,3.56.02,7.05-.13,10.43-1.48,1.82-.73,3.66-1.44,5.27-2.51,2.82-1.88,5.15-4.23,7.19-7.01,2.8-3.81,4.03-8.09,4.12-12.62.2-9.63.06-19.27.06-28.91,0-6.61,0-13.22,0-19.82ZM75.28,78.24c-.93-2.95-2.08-5.81-3.13-8.71-.87-2.42-1.68-4.87-2.54-7.29-.88-2.45-1.84-4.87-2.69-7.33-.73-2.11-1.39-4.24-2.29-6.29-.62-1.4-1.21-2.84-1.61-4.32-.46-1.7-1.08-3.33-1.67-4.98-.96-2.71-2.17-5.32-2.94-8.1-.39-1.42-.98-2.79-1.49-4.17-.6-1.6-1.3-3.16-1.8-4.79-.46-1.48-.96-2.94-1.48-4.39-.6-1.68-1.33-3.31-1.9-5-1.09-3.25-2.2-6.5-3.38-9.73-.44-1.22-1.14-1.52-2.31-1.51-4.75.04-9.51.02-14.26.02-1.82,0-2.14.18-2.62,1.94-.5,1.83-1.2,3.59-1.94,5.31-1.56,3.64-2.42,7.51-3.99,11.14-1.02,2.35-1.71,4.85-2.56,7.28-.66,1.87-1.27,3.77-2.02,5.6-.77,1.91-1.39,3.87-2.1,5.81-.63,1.73-1.27,3.47-1.94,5.19-1.26,3.22-2.13,6.58-3.43,9.79-.31.76-.67,1.5-.95,2.28-1.13,3.17-2.01,6.41-3.34,9.52-1.73,4.03-2.72,8.34-4.49,12.38-.84,1.91-1.42,3.93-2.12,5.9-.16.45-.41.89-.19,1.4.4.51.99.4,1.52.4,4.75,0,9.51,0,14.26,0,1.37,0,1.81-.36,2.21-1.69.32-1.08.56-2.21,1.04-3.23,1.33-2.81,2.13-5.8,3.21-8.7.52-1.41,1.1-2.79,1.64-4.19.83-2.14,1.44-4.36,2.22-6.53.89-2.48,1.89-4.93,2.8-7.41.78-2.13,1.44-4.3,2.26-6.42.71-1.85,1.47-3.69,2.09-5.58.66-2.02,1.24-4.09,2.08-6.03,1.03-2.4,1.95-4.82,2.71-7.31.14-.45.27-.94.84-1.01.3.09.38.32.45.56.51,1.78,1.28,3.46,1.87,5.21,1.18,3.5,2.39,6.99,3.88,10.38.38.85.01,1.39-.94,1.49-.34.04-.69.02-1.03.02-2.69,0-5.37,0-8.06,0-.74,0-1.38.15-1.68.91-.86,2.21-1.65,4.44-2.52,6.64-.91,2.29-1.59,4.67-2.45,6.99-.53,1.43-.2,1.99,1.31,1.99,6.75,0,13.5-.01,20.25,0,1.27,0,1.9.54,2.27,1.68.62,1.96,1.25,3.91,1.96,5.84.73,1.99,1.49,3.97,2.28,5.95,1.11,2.8,1.89,5.74,2.82,8.61.41,1.28,1.05,1.85,2.03,1.85,4.96,0,9.92,0,14.88,0,.44,0,.91.05,1.26-.41.12-.63,0-1.3-.28-1.86-.82-1.63-1.43-3.33-1.98-5.06ZM229.06,1.64c-21.56,0-43.12,0-64.68,0-2.02,0-2.42.37-2.42,2.4-.01,3.89,0,7.78,0,11.67,0,.38.02.76.09,1.13.21,1.16.63,1.49,1.83,1.49,7.65,0,15.29,0,22.94-.02,1.38,0,1.57.17,1.57,1.52,0,21.3,0,42.61-.01,63.91,0,1.56.24,1.82,1.78,1.82,4.51,0,9.02,0,13.54,0,.48,0,.98.04,1.46-.52,0-.76,0-1.58,0-2.4,0-20.89,0-41.78,0-62.68,0-1.39.27-1.66,1.72-1.66,7.3,0,14.6,0,21.9,0,.45,0,.9.02,1.34-.01.85-.07,1.28-.5,1.28-1.41,0-4.3.05-8.6.06-12.89,0-1.93-.46-2.37-2.38-2.37ZM495.33,183.92c-2.09-2.14-4.24-4.23-6.25-6.44-3.28-3.62-6.69-7.12-10.12-10.59-1.81-1.83-3.58-3.71-5.39-5.55-1.02-1.04-.92-1.42.1-2.51,3.5-3.69,6.98-7.4,10.47-11.1,3.8-4.03,7.59-8.06,11.39-12.09.27-.28.56-.53.36-.99-.33-.4-.8-.3-1.24-.3-3.72,0-7.44.02-11.16,0-.71,0-1.24.19-1.72.72-1.89,2.09-3.81,4.15-5.72,6.23-2.91,3.16-6.03,6.13-8.86,9.38-1.08,1.24-2.24,2.43-3.46,3.54-.94.86-2.16.7-3.24.34-1.02-.33-.61-1.34-.62-2.08-.01-12.11,0-24.23,0-36.34,0-1.23-.35-1.68-1.55-1.7-2.72-.05-5.44-.04-8.16-.02-.93,0-1.36.57-1.34,1.48.01.69.05,1.38.05,2.06,0,22.09,0,44.19,0,66.28,0,.52,0,1.03-.02,1.55-.06,1.52.24,1.85,1.74,1.85,2.51,0,5.03,0,7.54,0,1.48,0,1.75-.27,1.75-1.74,0-6.3-.01-12.6-.02-18.89,0-.34-.04-.69.23-.97,1.3-.58,2.32-.43,3.27.55,4.11,4.25,8.2,8.53,12.3,12.78,2.41,2.5,4.85,4.97,7.28,7.45.59.6,1.3.84,2.14.84,3.93-.01,7.85,0,11.78,0,.41,0,.84.08,1.14-.38.13-.44-.13-.75-.42-1.06-.75-.76-1.49-1.52-2.24-2.29ZM366.46,138.79c-2.76-2.78-6.09-4.43-10.1-4.43-7.82,0-15.63,0-23.45,0-.48,0-.98-.03-1.44.07-5.82,1.28-9.2,5.74-9.32,11.2-.18,8.43-.04,16.86-.05,25.29,0,3.64.72,7.11,2.79,10.15,2.61,3.85,6.28,6.39,10.95,6.49,9.95.22,19.9.08,29.86.06,1.29,0,1.63-.4,1.63-1.7,0-2.41-.01-4.82,0-7.23,0-1.79-.14-1.96-1.91-1.96-4.48,0-8.95,0-13.43,0s-9.3.03-13.95-.01c-3.16-.03-4.76-1.55-4.78-4.66-.04-8.29,0-16.58,0-24.87,0-1.88.15-2.04,2.07-2.04,6.54,0,13.09,0,19.63,0,2.34,0,4.65,1.22,5.22,3.93.67,3.23-.84,6.41-4.8,6.38-4.86-.03-9.71-.01-14.57,0-1.4,0-1.65.24-1.66,1.6-.01,2.68,0,5.37,0,8.05,0,.41-.04.83.33,1.2.28.22.66.19,1.04.19,4.72,0,9.44-.11,14.15.03,3.59.11,6.81-.76,9.71-2.81,2.97-2.1,5.1-4.81,6.08-8.42,1.01-3.76.72-7.4-.42-11.06-.67-2.17-2.03-3.91-3.58-5.47ZM497.26,23.04c-4.68,0-9.36,0-14.04,0-.93,0-1.32.5-1.37,1.32-.05.79-.01,1.58-.02,2.37-.08,19.02.17,38.04-.14,57.06-.02,1.48.33,1.8,1.82,1.8,4.47,0,8.95.01,13.42.02,1.35,0,1.55-.18,1.55-1.55,0-19.81,0-39.63,0-59.44,0-.48.03-.97-.37-1.38-.3-.2-.58-.19-.86-.19ZM451.88,85.14c.22-.34.21-.69.21-1.04.01-4.58.01-9.15.04-13.73,0-.78-.37-1.15-1.09-1.23-.44-.05-.89-.05-1.34-.05-4.34,0-8.68.01-13.02,0-1.61,0-3.15-.31-4.47-1.31-2.14-1.62-3.03-3.84-3.05-6.45-.02-4.71-.02-9.43,0-14.14,0-1.24.13-2.52.66-3.62,1.17-2.42,3.19-3.65,5.92-3.75,5.2-.19,10.4-.05,15.6-.07.67,0,1.38-.05,1.98.25.46.5.34,1.07.34,1.61,0,14.08,0,28.15.01,42.23,0,1.52.23,1.75,1.73,1.75,4.48,0,8.95,0,13.43,0,.48,0,.97.04,1.41-.4.21-.38.15-.77.15-1.14.1-7.97-.15-15.95-.02-23.92.08-4.58.02-9.15,0-13.73,0-3.99-.02-7.98-.05-11.97-.02-3.19-.07-6.38.05-9.57.06-1.44-.4-1.82-1.84-1.82-8.61,0-17.22-.01-25.83.02-3.71.01-7.42-.17-11.12.52-2.47.46-4.84,1.18-6.98,2.4-3.35,1.91-6.16,4.48-8.3,7.73-1.18,1.8-2.04,3.72-2.63,5.79-.67,2.35-1.19,4.73-1.22,7.16-.05,4.36.11,8.72,0,13.08-.1,3.76.46,7.41,1.73,10.9,1.64,4.52,4.64,8.1,8.58,10.82,1.66,1.14,3.5,1.98,5.42,2.68,1.82.67,3.66,1.34,5.55,1.39,5.54.13,11.09.05,16.63.04.55,0,1.11,0,1.5-.43ZM428.97,158.28c-2.43-1.78-4.95-3.29-8.03-3.41-5.44-.22-10.88-.1-16.32-.12-1.68,0-3.38.11-5.05-.03-4.14-.35-5.01-4.49-3.77-6.95.94-1.85,2.61-2.59,4.59-2.59,9.19-.02,18.39,0,27.58,0,.59,0,1.17,0,1.76-.04,1.14-.08,1.35-.35,1.34-1.47-.02-2.51-.02-5.02,0-7.53.01-1.42-.28-1.77-1.74-1.77-10.19,0-20.39,0-30.58,0-1.49,0-2.97.33-4.33.88-3.51,1.41-6.29,3.7-8.11,7.1-1.99,3.73-1.81,7.68-1.36,11.67.02.13.08.26.13.39.85,2.45,1.96,4.68,3.86,6.59,2.92,2.95,6.41,4.57,10.43,4.68,6.54.19,13.09.13,19.63,0,2.18-.04,4.6,1.88,4.57,4.34-.01.89.03,1.79-.02,2.68-.08,1.46-.85,2.54-2.09,3.24-1.03.58-2.15.82-3.37.82-9.54-.03-19.08-.02-28.62-.02-.45,0-.9-.02-1.34,0-1.01.06-1.31.43-1.3,1.44.02,2.48.05,4.95.02,7.43-.02,1.76.19,2.01,1.99,2.01,5.27,0,10.54,0,15.81,0h0c5.13,0,10.26.07,15.39-.03,4.55-.08,8.17-2.25,11.02-5.64,1.63-1.93,2.58-4.25,3.15-6.74.79-3.46.6-6.91-.55-10.17-.92-2.6-2.33-5.03-4.69-6.77ZM385.73,85.58c4.34,0,8.68,0,13.02,0,1.82,0,2.03-.2,2.03-1.99,0-26.43,0-52.86,0-79.28,0-.58.03-1.17-.19-1.73-.21-.53-.55-.83-1.17-.83-3.96.03-7.92.05-11.88.05-.71,0-1.26.26-1.71.8-2.48,3.03-4.95,6.06-7.45,9.08-2.65,3.2-5.37,6.35-7.96,9.6-2.42,3.03-4.85,6.06-7.42,8.96-.27.31-.48.68-.99.74-.47-.1-.66-.45-.92-.72-1.96-1.95-3.52-4.22-5.27-6.34-4.11-4.99-8.22-9.97-12.31-14.96-1.74-2.13-3.42-4.31-5.27-6.34-.5-.55-1.09-.84-1.82-.81-3.65.13-7.29-.24-10.94-.16-1.68.03-1.98.33-1.98,2.01,0,26.15,0,52.31,0,78.46,0,.69-.02,1.38,0,2.06.04,1.17.32,1.42,1.52,1.41,4.55,0,9.09,0,13.64,0,.38,0,.76.06,1.09-.25.29-.32.27-.74.27-1.15,0-2.27,0-4.54,0-6.81,0-14.76-.01-29.52-.01-44.29,0-.45-.14-.98.38-1.26.33-.01.46.19.62.38,1.57,1.87,3.14,3.74,4.71,5.6,1.44,1.71,2.94,3.37,4.3,5.14,1.69,2.21,3.54,4.3,5.29,6.46.59.72,1.35.98,2.28.97,2.86-.04,5.72-.08,8.57.01,1.35.04,2.26-.44,3.08-1.46,2.11-2.62,4.33-5.16,6.45-7.78,2.46-3.04,5.11-5.93,7.38-9.12.15-.21.32-.37.62-.3.46.23.34.68.34,1.08,0,17.07-.01,34.14-.02,51.2,0,.44-.07.9.24,1.29.43.4.97.31,1.47.31Z"/>
</svg>